<?xml version="1.0" encoding="UTF-8" standalone="no"?>
<!-- Created with Inkscape (http://www.inkscape.org/) -->

<svg
   width="154.30272"
   height="64.39312"
   viewBox="0 0 40.825928 17.037346"
   version="1.1"
   id="svg1"
   sodipodi:docname="Nora wide white.svg"
   inkscape:version="1.3.2 (091e20e, 2023-11-25, custom)"
   inkscape:export-filename="Nora wide white.png"
   inkscape:export-xdpi="96"
   inkscape:export-ydpi="96"
   xmlns:inkscape="http://www.inkscape.org/namespaces/inkscape"
   xmlns:sodipodi="http://sodipodi.sourceforge.net/DTD/sodipodi-0.dtd"
   xmlns:xlink="http://www.w3.org/1999/xlink"
   xmlns="http://www.w3.org/2000/svg"
   xmlns:svg="http://www.w3.org/2000/svg">
  <sodipodi:namedview
     id="namedview1"
     pagecolor="#2b2b2b"
     bordercolor="#252525"
     borderopacity="0.8"
     inkscape:showpageshadow="2"
     inkscape:pageopacity="0.0"
     inkscape:pagecheckerboard="true"
     inkscape:deskcolor="#d1d1d1"
     inkscape:document-units="mm"
     showguides="true"
     inkscape:zoom="0.45254834"
     inkscape:cx="921.44852"
     inkscape:cy="557.95144"
     inkscape:window-width="1350"
     inkscape:window-height="861"
     inkscape:window-x="169"
     inkscape:window-y="143"
     inkscape:window-maximized="0"
     inkscape:current-layer="layer1"
     inkscape:export-bgcolor="#00000000">
    <sodipodi:guide
       position="115.21037,157.09999"
       orientation="0,-1"
       id="guide19"
       inkscape:locked="false" />
    <sodipodi:guide
       position="299.96043,72.325429"
       orientation="0,-1"
       id="guide20"
       inkscape:locked="false" />
    <sodipodi:guide
       position="133.33458,88.695688"
       orientation="1,0"
       id="guide21"
       inkscape:locked="false" />
    <sodipodi:guide
       position="384.15034,-17.126339"
       orientation="1,0"
       id="guide22"
       inkscape:locked="false" />
    <sodipodi:guide
       position="235.06405,55.370519"
       orientation="0,-1"
       id="guide23"
       inkscape:locked="false" />
  </sodipodi:namedview>
  <defs
     id="defs1">
    <linearGradient
       id="linearGradient26"
       inkscape:collect="always">
      <stop
         style="stop-color:#ffffff;stop-opacity:1;"
         offset="0"
         id="stop25" />
      <stop
         style="stop-color:#ff05a5;stop-opacity:1;"
         offset="1"
         id="stop26" />
    </linearGradient>
    <linearGradient
       id="linearGradient24"
       inkscape:collect="always">
      <stop
         style="stop-color:#f5f5f5;stop-opacity:1;"
         offset="0"
         id="stop23" />
      <stop
         style="stop-color:#ff05a5;stop-opacity:1;"
         offset="1"
         id="stop24" />
    </linearGradient>
    <linearGradient
       inkscape:collect="always"
       xlink:href="#linearGradient24"
       id="linearGradient28"
       x1="3613.583"
       y1="1916.417"
       x2="4588.0322"
       y2="2249.354"
       gradientUnits="userSpaceOnUse" />
    <linearGradient
       id="linearGradient27"
       inkscape:collect="always">
      <stop
         style="stop-color:#000000;stop-opacity:1;"
         offset="0"
         id="stop27" />
      <stop
         style="stop-color:#ff05a5;stop-opacity:1;"
         offset="1"
         id="stop28" />
    </linearGradient>
    <linearGradient
       id="linearGradient43"
       inkscape:collect="always"
       gradientTransform="scale(0.36844124,2.714137)"
       x1="11158.511"
       y1="1080.9197"
       x2="11203.957"
       y2="1080.9197"
       gradientUnits="userSpaceOnUse">
      <stop
         style="stop-color:#000000;stop-opacity:1;"
         offset="0"
         id="stop29" />
      <stop
         style="stop-color:#ff05a5;stop-opacity:1;"
         offset="1"
         id="stop30" />
    </linearGradient>
    <linearGradient
       id="linearGradient45"
       inkscape:collect="always"
       gradientTransform="scale(0.49636312,2.0146541)"
       x1="9408.7383"
       y1="1439.453"
       x2="9482.791"
       y2="1439.453"
       gradientUnits="userSpaceOnUse">
      <stop
         style="stop-color:#000000;stop-opacity:1;"
         offset="0"
         id="stop44" />
      <stop
         style="stop-color:#ff05a5;stop-opacity:1;"
         offset="1"
         id="stop45" />
    </linearGradient>
    <linearGradient
       id="linearGradient47"
       inkscape:collect="always"
       gradientTransform="scale(0.56865192,1.758545)"
       x1="7369.7173"
       y1="1702.2483"
       x2="7383.7988"
       y2="1702.2483"
       gradientUnits="userSpaceOnUse">
      <stop
         style="stop-color:#000000;stop-opacity:1;"
         offset="0"
         id="stop46" />
      <stop
         style="stop-color:#ff05a5;stop-opacity:1;"
         offset="1"
         id="stop47" />
    </linearGradient>
    <linearGradient
       id="linearGradient49"
       inkscape:collect="always"
       gradientTransform="scale(0.30934665,3.2326195)"
       x1="13515.582"
       y1="883.18469"
       x2="13552.907"
       y2="883.18469"
       gradientUnits="userSpaceOnUse">
      <stop
         style="stop-color:#000000;stop-opacity:1;"
         offset="0"
         id="stop48" />
      <stop
         style="stop-color:#ff05a5;stop-opacity:1;"
         offset="1"
         id="stop49" />
    </linearGradient>
    <linearGradient
       id="linearGradient51"
       inkscape:collect="always"
       gradientTransform="scale(0.41911283,2.3859923)"
       x1="9715.7607"
       y1="1214.6355"
       x2="9731.2695"
       y2="1214.6355"
       gradientUnits="userSpaceOnUse">
      <stop
         style="stop-color:#000000;stop-opacity:1;"
         offset="0"
         id="stop50" />
      <stop
         style="stop-color:#ff05a5;stop-opacity:1;"
         offset="1"
         id="stop51" />
    </linearGradient>
    <linearGradient
       id="linearGradient53"
       inkscape:collect="always"
       gradientTransform="scale(0.56865192,1.758545)"
       x1="6965.252"
       y1="1122.2233"
       x2="6979.3335"
       y2="1122.2233"
       gradientUnits="userSpaceOnUse">
      <stop
         style="stop-color:#000000;stop-opacity:1;"
         offset="0"
         id="stop52" />
      <stop
         style="stop-color:#ff05a5;stop-opacity:1;"
         offset="1"
         id="stop53" />
    </linearGradient>
    <linearGradient
       inkscape:collect="always"
       xlink:href="#linearGradient27"
       id="linearGradient1"
       gradientUnits="userSpaceOnUse"
       x1="3613.583"
       y1="1916.417"
       x2="4588.0322"
       y2="2249.354" />
    <linearGradient
       inkscape:collect="always"
       xlink:href="#linearGradient27"
       id="linearGradient2"
       gradientUnits="userSpaceOnUse"
       x1="3613.583"
       y1="1916.417"
       x2="4588.0322"
       y2="2249.354" />
    <linearGradient
       inkscape:collect="always"
       xlink:href="#linearGradient27"
       id="linearGradient3"
       gradientUnits="userSpaceOnUse"
       x1="3613.583"
       y1="1916.417"
       x2="4588.0322"
       y2="2249.354" />
    <linearGradient
       inkscape:collect="always"
       xlink:href="#linearGradient27"
       id="linearGradient4"
       gradientUnits="userSpaceOnUse"
       x1="3613.583"
       y1="1916.417"
       x2="4588.0322"
       y2="2249.354" />
    <linearGradient
       inkscape:collect="always"
       xlink:href="#linearGradient26"
       id="linearGradient5"
       gradientUnits="userSpaceOnUse"
       x1="3613.583"
       y1="1916.417"
       x2="4588.0322"
       y2="2249.354" />
    <linearGradient
       inkscape:collect="always"
       xlink:href="#linearGradient27"
       id="linearGradient6"
       gradientUnits="userSpaceOnUse"
       x1="3613.583"
       y1="1916.417"
       x2="4588.0322"
       y2="2249.354" />
    <linearGradient
       inkscape:collect="always"
       xlink:href="#linearGradient27"
       id="linearGradient7"
       gradientUnits="userSpaceOnUse"
       x1="3613.583"
       y1="1916.417"
       x2="4588.0322"
       y2="2249.354" />
    <linearGradient
       inkscape:collect="always"
       xlink:href="#linearGradient27"
       id="linearGradient8"
       gradientUnits="userSpaceOnUse"
       x1="3613.583"
       y1="1916.417"
       x2="4588.0322"
       y2="2249.354" />
    <linearGradient
       inkscape:collect="always"
       xlink:href="#linearGradient27"
       id="linearGradient9"
       gradientUnits="userSpaceOnUse"
       x1="3613.583"
       y1="1916.417"
       x2="4588.0322"
       y2="2249.354" />
    <linearGradient
       inkscape:collect="always"
       xlink:href="#linearGradient27"
       id="linearGradient10"
       gradientUnits="userSpaceOnUse"
       x1="3613.583"
       y1="1916.417"
       x2="4588.0322"
       y2="2249.354" />
    <linearGradient
       inkscape:collect="always"
       xlink:href="#linearGradient27"
       id="linearGradient11"
       gradientUnits="userSpaceOnUse"
       x1="3613.583"
       y1="1916.417"
       x2="4588.0322"
       y2="2249.354" />
    <linearGradient
       inkscape:collect="always"
       xlink:href="#linearGradient27"
       id="linearGradient12"
       gradientUnits="userSpaceOnUse"
       x1="3613.583"
       y1="1916.417"
       x2="4588.0322"
       y2="2249.354" />
    <linearGradient
       inkscape:collect="always"
       xlink:href="#linearGradient27"
       id="linearGradient13"
       gradientUnits="userSpaceOnUse"
       x1="3613.583"
       y1="1916.417"
       x2="4588.0322"
       y2="2249.354" />
    <linearGradient
       inkscape:collect="always"
       xlink:href="#linearGradient27"
       id="linearGradient14"
       gradientUnits="userSpaceOnUse"
       x1="3613.583"
       y1="1916.417"
       x2="4588.0322"
       y2="2249.354" />
    <linearGradient
       inkscape:collect="always"
       xlink:href="#linearGradient27"
       id="linearGradient15"
       gradientUnits="userSpaceOnUse"
       x1="3613.583"
       y1="1916.417"
       x2="4588.0322"
       y2="2249.354" />
    <linearGradient
       inkscape:collect="always"
       xlink:href="#linearGradient27"
       id="linearGradient16"
       gradientUnits="userSpaceOnUse"
       x1="3613.583"
       y1="1916.417"
       x2="4588.0322"
       y2="2249.354" />
    <linearGradient
       inkscape:collect="always"
       xlink:href="#linearGradient27"
       id="linearGradient17"
       gradientUnits="userSpaceOnUse"
       x1="3613.583"
       y1="1916.417"
       x2="4588.0322"
       y2="2249.354" />
    <linearGradient
       inkscape:collect="always"
       xlink:href="#linearGradient27"
       id="linearGradient18"
       gradientUnits="userSpaceOnUse"
       x1="3613.583"
       y1="1916.417"
       x2="4588.0322"
       y2="2249.354" />
    <linearGradient
       inkscape:collect="always"
       xlink:href="#linearGradient27"
       id="linearGradient19"
       gradientUnits="userSpaceOnUse"
       x1="3613.583"
       y1="1916.417"
       x2="4588.0322"
       y2="2249.354" />
  </defs>
  <g
     inkscape:label="Layer 1"
     inkscape:groupmode="layer"
     id="layer1"
     transform="translate(-4.6433134,-0.30331957)">
    <g
       transform="matrix(0.00458961,0,0,-0.00458961,-4.7653872,18.243707)"
       fill="#000000"
       stroke="none"
       id="g26"
       style="display:inline;fill:url(#linearGradient28);fill-opacity:1"
       inkscape:export-filename="logowebsite\logo-bottom-white-wide.svg"
       inkscape:export-xdpi="96"
       inkscape:export-ydpi="96">
      <path
         d="m 4596,3893 c -4,-9 -2,-21 4,-27 7,-7 10,-2 10,17 0,31 -5,34 -14,10 z"
         id="path2"
         style="fill:url(#linearGradient1);fill-opacity:1" />
      <path
         d="m 4471,3864 c 0,-11 3,-14 6,-6 3,7 2,16 -1,19 -3,4 -6,-2 -5,-13 z"
         id="path3"
         style="fill:url(#linearGradient2);fill-opacity:1" />
      <path
         d="m 4640,3840 c 0,-5 -7,-60 -16,-122 -8,-62 -13,-123 -11,-135 2,-13 0,-23 -4,-23 -11,0 -11,-57 0,-84 5,-12 12,33 20,115 6,74 14,162 17,197 4,34 4,62 0,62 -3,0 -6,-4 -6,-10 z"
         id="path4"
         style="fill:url(#linearGradient3);fill-opacity:1" />
      <path
         d="m 4597,3814 c -4,-4 -7,-17 -7,-28 1,-19 1,-20 11,-3 11,19 8,43 -4,31 z"
         id="path5"
         style="fill:url(#linearGradient4);fill-opacity:1" />
      <path
         d="m 4442,3699 c -7,-41 -10,-95 -8,-120 4,-33 3,-38 -3,-19 -5,14 -9,20 -10,14 -4,-47 -32,-239 -37,-260 -4,-16 -3,-25 2,-21 5,3 11,20 12,39 2,18 6,36 11,41 4,4 4,-14 -1,-40 -5,-26 -9,-59 -8,-71 0,-13 -7,-33 -15,-45 -11,-15 -15,-17 -15,-6 0,8 4,19 9,25 5,5 5,18 1,29 -10,26 -25,-78 -23,-155 2,-63 -18,-205 -27,-190 -3,5 -11,5 -20,0 -15,-9 -22,-73 -40,-350 -16,-238 -20,-276 -31,-259 -5,8 -9,117 -9,242 0,239 -12,294 -24,110 -4,-60 -10,-118 -13,-130 -13,-56 -19,-11 -17,145 1,124 -1,155 -8,122 -5,-25 -10,-122 -11,-217 -1,-94 -6,-175 -10,-179 -4,-4 -7,10 -7,32 -1,35 -2,37 -14,22 -7,-10 -16,-18 -20,-18 -8,0 -7,309 3,393 4,37 4,73 -1,80 -4,7 -8,-6 -8,-30 0,-47 -19,-71 -21,-26 l -1,28 -8,-27 c -4,-15 -11,-132 -15,-260 -4,-128 -9,-235 -11,-237 -2,-2 -6,-2 -9,1 -7,7 -7,330 0,473 7,149 -2,122 -20,-60 -10,-111 -13,-236 -10,-480 3,-181 1,-336 -4,-344 -5,-7 -14,-10 -20,-7 -13,8 -13,3 -11,-77 1,-52 -1,-58 -16,-55 -13,2 -21,16 -25,43 -7,45 -18,199 -19,263 0,23 -4,42 -8,42 -5,0 -7,-45 -4,-100 3,-71 1,-100 -7,-100 -7,0 -11,20 -11,53 -1,28 -3,79 -5,112 -2,33 -7,144 -11,248 -4,111 -10,187 -16,187 -6,0 -9,-104 -8,-282 2,-324 3,-308 -10,-288 -7,10 -8,-15 -4,-77 6,-82 5,-93 -10,-93 -11,0 -16,9 -16,28 0,15 -9,146 -20,292 -11,146 -21,281 -21,300 -1,20 -5,7 -9,-30 -3,-36 -2,-164 2,-284 5,-121 7,-226 6,-234 -3,-13 -123,77 -418,313 -486,389 -1278,1015 -1285,1015 -3,0 -5,-585 -5,-1301 V 618 l 33,7 c 17,4 185,51 372,105 l 340,97 3,477 c 1,262 6,476 10,476 7,0 41,-26 392,-305 118,-94 303,-240 410,-325 107,-85 337,-267 510,-405 503,-400 541,-430 551,-433 5,-2 9,291 9,760 0,606 -3,792 -15,904 -8,78 -16,234 -17,348 -2,113 -7,206 -11,206 -12,0 -4,261 8,280 8,12 11,9 16,-15 6,-27 7,-26 8,13 1,40 -11,57 -22,30 -3,-7 -5,62 -4,155 1,118 -1,167 -9,167 -12,0 -35,-131 -33,-180 1,-14 -2,-81 -6,-150 -12,-207 -13,-228 -14,-403 -1,-114 -4,-166 -11,-162 -13,8 -13,676 0,746 15,83 20,179 11,179 -17,0 -24,-86 -47,-520 -3,-69 -10,-126 -15,-128 -5,-2 -9,-10 -9,-18 0,-9 5,-12 10,-9 6,4 10,-6 10,-24 0,-23 -4,-29 -15,-25 -8,4 -15,16 -15,28 0,17 -2,18 -10,6 -6,-8 -10,-67 -9,-130 1,-152 1,-150 -16,-150 -8,0 -15,-7 -15,-15 0,-8 -4,-15 -9,-15 -5,0 -13,25 -17,56 -9,77 1,646 15,769 31,288 42,417 37,422 -3,4 -6,-9 -7,-28 0,-19 -4,-43 -9,-54 -6,-13 -7,3 -3,45 5,60 23,110 23,65 0,-10 2,-16 5,-13 3,3 2,24 -4,47 -5,24 -5,43 0,47 12,7 11,54 -1,54 -5,0 -10,-8 -10,-17 -1,-10 -7,-58 -15,-108 -8,-49 -24,-180 -35,-290 -12,-110 -22,-201 -24,-202 -1,-1 -2,49 -2,112 0,63 3,115 7,115 9,0 32,217 25,237 -4,9 -4,14 1,10 10,-11 33,155 23,168 -5,6 -4,34 1,63 6,30 9,61 7,70 -2,9 -9,-17 -16,-59 z m -15,-216 c -3,-10 -5,-2 -5,17 0,19 2,27 5,18 2,-10 2,-26 0,-35 z m -10,-85 c -3,-7 -5,-2 -5,12 0,14 2,19 5,13 2,-7 2,-19 0,-25 z m 43,-78 c 0,-5 -4,-10 -10,-10 -5,0 -10,5 -10,10 0,6 5,10 10,10 6,0 10,-4 10,-10 z m -13,-52 c -3,-7 -5,-2 -5,12 0,14 2,19 5,13 2,-7 2,-19 0,-25 z m -1,-45 c -10,-10 -19,5 -10,18 6,11 8,11 12,0 2,-7 1,-15 -2,-18 z m -9,-65 c -2,-13 -4,-5 -4,17 -1,22 1,32 4,23 2,-10 2,-28 0,-40 z m -47,-22 c 0,-2 -7,-7 -16,-10 -8,-3 -12,-2 -9,4 6,10 25,14 25,6 z m 50,-31 c 0,-14 -2,-25 -4,-25 -2,0 -6,11 -8,25 -3,14 -1,25 3,25 5,0 9,-11 9,-25 z m -58,-47 c -8,-8 -9,-4 -5,13 4,13 8,18 11,10 2,-7 -1,-18 -6,-23 z"
         id="path6"
         style="fill:url(#linearGradient5);fill-opacity:1" />
      <path
         d="m 4582,3716 c 2,-19 1,-33 -3,-30 -4,2 -9,-10 -13,-27 -8,-42 -6,-58 4,-34 5,13 8,-3 8,-50 -1,-42 -6,-78 -14,-90 -12,-17 -13,-11 -10,45 4,59 4,61 -5,25 -6,-22 -9,-56 -7,-77 2,-20 1,-35 -2,-33 -3,2 -5,-36 -6,-84 -1,-50 -9,-113 -19,-149 -15,-55 -16,-65 -4,-74 11,-7 11,-11 2,-15 -14,-5 -18,-53 -5,-53 5,0 7,-26 6,-57 l -3,-58 9,50 c 12,72 12,143 -1,147 -7,2 -8,14 -3,33 l 8,30 7,-30 7,-30 1,30 c 3,64 22,259 27,282 4,13 12,22 18,20 8,-3 12,35 14,129 2,95 -1,134 -9,134 -7,0 -10,-13 -7,-34 z"
         id="path7"
         style="fill:url(#linearGradient6);fill-opacity:1" />
      <path
         d="m 4307,3534 c -4,-4 -7,-14 -7,-23 0,-11 3,-12 11,-4 6,6 10,16 7,23 -2,6 -7,8 -11,4 z"
         id="path8"
         style="fill:url(#linearGradient7);fill-opacity:1" />
      <path
         d="m 4586,3393 c -13,-136 -15,-183 -7,-183 9,0 31,145 31,200 0,72 -17,61 -24,-17 z"
         id="path9"
         style="fill:url(#linearGradient8);fill-opacity:1" />
      <path
         d="m 4643,3406 c -7,-22 -11,-42 -8,-44 8,-8 26,40 23,61 -2,17 -6,13 -15,-17 z"
         id="path10"
         style="fill:url(#linearGradient9);fill-opacity:1" />
      <path
         d="m 4645,3235 c -4,-25 -5,-48 -2,-51 3,-3 9,15 12,41 4,25 5,48 2,51 -3,3 -9,-15 -12,-41 z"
         id="path11"
         style="fill:url(#linearGradient10);fill-opacity:1" />
      <path
         d="m 4321,3204 c 0,-11 3,-14 6,-6 3,7 2,16 -1,19 -3,4 -6,-2 -5,-13 z"
         id="path12"
         style="fill:url(#linearGradient11);fill-opacity:1" />
      <path
         d="m 4310,3130 c 0,-5 5,-10 10,-10 6,0 10,5 10,10 0,6 -4,10 -10,10 -5,0 -10,-4 -10,-10 z"
         id="path13"
         style="fill:url(#linearGradient12);fill-opacity:1" />
      <path
         d="m 4753,3062 c -18,-74 -15,-109 3,-42 8,30 13,64 12,75 -2,11 -9,-4 -15,-33 z"
         id="path14"
         style="fill:url(#linearGradient13);fill-opacity:1" />
      <path
         d="m 4307,3063 c -4,-3 -7,-11 -7,-17 0,-6 5,-5 12,2 6,6 9,14 7,17 -3,3 -9,2 -12,-2 z"
         id="path15"
         style="fill:url(#linearGradient14);fill-opacity:1" />
      <path
         d="m 4115,3000 c -4,-34 -5,-63 -2,-66 2,-3 7,23 11,57 4,33 5,63 3,66 -3,2 -8,-23 -12,-57 z"
         id="path16"
         style="fill:url(#linearGradient43);fill-opacity:1" />
      <path
         d="m 4480,3013 c 0,-28 3,-34 10,-23 13,20 13,47 0,55 -6,4 -10,-9 -10,-32 z"
         id="path17"
         style="fill:url(#linearGradient15);fill-opacity:1" />
      <path
         d="m 4685,3017 c -18,-42 -20,-117 -4,-117 7,0 10,15 7,39 -2,22 0,38 3,35 7,-4 21,68 14,75 -3,2 -12,-12 -20,-32 z"
         id="path18"
         style="fill:url(#linearGradient45);fill-opacity:1" />
      <path
         d="m 4082,2990 c 0,-19 2,-27 5,-17 2,9 2,25 0,35 -3,9 -5,1 -5,-18 z"
         id="path19"
         style="fill:url(#linearGradient16);fill-opacity:1" />
      <path
         d="m 4191,3004 c 0,-11 3,-14 6,-6 3,7 2,16 -1,19 -3,4 -6,-2 -5,-13 z"
         id="path20"
         style="fill:url(#linearGradient47);fill-opacity:1" />
      <path
         d="m 4301,3004 c 0,-11 3,-14 6,-6 3,7 2,16 -1,19 -3,4 -6,-2 -5,-13 z"
         id="path21"
         style="fill:url(#linearGradient17);fill-opacity:1" />
      <path
         d="m 4181,2920 2,-65 7,55 c 4,30 3,59 -1,65 -5,5 -8,-19 -8,-55 z"
         id="path22"
         style="fill:url(#linearGradient49);fill-opacity:1" />
      <path
         d="m 4472,2945 c 0,-16 2,-22 5,-12 2,9 2,23 0,30 -3,6 -5,-1 -5,-18 z"
         id="path23"
         style="fill:url(#linearGradient18);fill-opacity:1" />
      <path
         d="m 4072,2915 c 0,-16 2,-22 5,-12 2,9 2,23 0,30 -3,6 -5,-1 -5,-18 z"
         id="path24"
         style="fill:url(#linearGradient51);fill-opacity:1" />
      <path
         d="m 4508,2934 c -4,-5 -9,-57 -12,-115 -2,-57 -2,-90 1,-74 2,17 11,37 19,46 8,9 12,18 10,20 -3,3 -1,21 3,42 5,20 5,37 1,37 -5,0 -10,12 -12,28 -2,15 -6,22 -10,16 z"
         id="path25"
         style="fill:url(#linearGradient19);fill-opacity:1" />
      <path
         d="m 3961,1984 c 0,-11 3,-14 6,-6 3,7 2,16 -1,19 -3,4 -6,-2 -5,-13 z"
         id="path26"
         style="fill:url(#linearGradient53);fill-opacity:1" />
    </g>
    <text
       xml:space="preserve"
       style="font-style:normal;font-variant:normal;font-weight:normal;font-stretch:normal;font-size:9.35127px;font-family:Monospace;-inkscape-font-specification:Monospace;fill:#ffffff;stroke-width:0.779276"
       x="19.327185"
       y="9.242095"
       id="text53"><tspan
         sodipodi:role="line"
         style="font-style:normal;font-variant:normal;font-weight:normal;font-stretch:normal;font-family:'Malgun Gothic';-inkscape-font-specification:'Malgun Gothic';fill:#ffffff;stroke-width:0.779276"
         x="19.327185"
         y="9.242095"
         id="tspan54">NORA</tspan></text>
    <text
       xml:space="preserve"
       style="font-size:4.88668px;fill:#ffffff;stroke-width:0.407223"
       x="19.872162"
       y="14.2138"
       id="text53-27"><tspan
         sodipodi:role="line"
         style="font-style:normal;font-variant:normal;font-weight:normal;font-stretch:normal;font-family:'Malgun Gothic';-inkscape-font-specification:'Malgun Gothic';fill:#ffffff;stroke-width:0.407223"
         x="19.872162"
         y="14.2138"
         id="tspan55">MAKEOVER</tspan></text>
    <text
       xml:space="preserve"
       style="font-style:normal;font-variant:normal;font-weight:normal;font-stretch:normal;font-size:2.84743px;font-family:'Malgun Gothic';-inkscape-font-specification:'Malgun Gothic';fill:#ffffff;stroke-width:0.0333684"
       x="37.96693"
       y="16.406351"
       id="text1"><tspan
         sodipodi:role="line"
         id="tspan1"
         style="font-style:normal;font-variant:normal;font-weight:normal;font-stretch:normal;font-family:'Edwardian Script ITC';-inkscape-font-specification:'Edwardian Script ITC';fill:#ffffff;stroke-width:0.0333684"
         x="37.96693"
         y="16.406351">by Lintu</tspan></text>
  </g>
</svg>
