<?xml version="1.0" encoding="UTF-8" standalone="no"?>
<!-- Created with Inkscape (http://www.inkscape.org/) -->

<svg
   width="154.30272"
   height="64.39312"
   viewBox="0 0 40.825928 17.037346"
   version="1.1"
   id="svg1"
   sodipodi:docname="logo-bottom-white-wide.svg"
   inkscape:version="1.3.2 (091e20e, 2023-11-25, custom)"
   inkscape:export-filename="Nora wide white.png"
   inkscape:export-xdpi="96"
   inkscape:export-ydpi="96"
   xmlns:inkscape="http://www.inkscape.org/namespaces/inkscape"
   xmlns:sodipodi="http://sodipodi.sourceforge.net/DTD/sodipodi-0.dtd"
   xmlns:xlink="http://www.w3.org/1999/xlink"
   xmlns="http://www.w3.org/2000/svg"
   xmlns:svg="http://www.w3.org/2000/svg">
  <sodipodi:namedview
     id="namedview1"
     pagecolor="#2b2b2b"
     bordercolor="#252525"
     borderopacity="0.8"
     inkscape:showpageshadow="2"
     inkscape:pageopacity="0.0"
     inkscape:pagecheckerboard="true"
     inkscape:deskcolor="#d1d1d1"
     inkscape:document-units="mm"
     showguides="true"
     inkscape:zoom="2.56"
     inkscape:cx="116.99219"
     inkscape:cy="32.226563"
     inkscape:window-width="1350"
     inkscape:window-height="861"
     inkscape:window-x="169"
     inkscape:window-y="0"
     inkscape:window-maximized="0"
     inkscape:current-layer="layer1"
     inkscape:export-bgcolor="#00000000">
    <sodipodi:guide
       position="115.21037,157.09999"
       orientation="0,-1"
       id="guide19"
       inkscape:locked="false" />
    <sodipodi:guide
       position="299.96043,72.325429"
       orientation="0,-1"
       id="guide20"
       inkscape:locked="false" />
    <sodipodi:guide
       position="133.33458,88.695688"
       orientation="1,0"
       id="guide21"
       inkscape:locked="false" />
    <sodipodi:guide
       position="384.15034,-17.126339"
       orientation="1,0"
       id="guide22"
       inkscape:locked="false" />
    <sodipodi:guide
       position="235.06405,55.370519"
       orientation="0,-1"
       id="guide23"
       inkscape:locked="false" />
  </sodipodi:namedview>
  <defs
     id="defs1">
    <linearGradient
       id="linearGradient26"
       inkscape:collect="always">
      <stop
         style="stop-color:#ffffff;stop-opacity:1;"
         offset="0"
         id="stop25" />
      <stop
         style="stop-color:#ff05a5;stop-opacity:1;"
         offset="1"
         id="stop26" />
    </linearGradient>
    <linearGradient
       id="linearGradient24"
       inkscape:collect="always">
      <stop
         style="stop-color:#f5f5f5;stop-opacity:1;"
         offset="0"
         id="stop23" />
      <stop
         style="stop-color:#ff05a5;stop-opacity:1;"
         offset="1"
         id="stop24" />
    </linearGradient>
    <linearGradient
       inkscape:collect="always"
       xlink:href="#linearGradient24"
       id="linearGradient28"
       x1="3613.583"
       y1="1916.417"
       x2="4588.0322"
       y2="2249.354"
       gradientUnits="userSpaceOnUse" />
    <linearGradient
       id="linearGradient27"
       inkscape:collect="always">
      <stop
         style="stop-color:#000000;stop-opacity:1;"
         offset="0"
         id="stop27" />
      <stop
         style="stop-color:#ff05a5;stop-opacity:1;"
         offset="1"
         id="stop28" />
    </linearGradient>
    <linearGradient
       id="linearGradient43"
       inkscape:collect="always"
       gradientTransform="scale(0.36844124,2.714137)"
       x1="11158.511"
       y1="1080.9197"
       x2="11203.957"
       y2="1080.9197"
       gradientUnits="userSpaceOnUse">
      <stop
         style="stop-color:#000000;stop-opacity:1;"
         offset="0"
         id="stop29" />
      <stop
         style="stop-color:#ff05a5;stop-opacity:1;"
         offset="1"
         id="stop30" />
    </linearGradient>
    <linearGradient
       id="linearGradient45"
       inkscape:collect="always"
       gradientTransform="scale(0.49636312,2.0146541)"
       x1="9408.7383"
       y1="1439.453"
       x2="9482.791"
       y2="1439.453"
       gradientUnits="userSpaceOnUse">
      <stop
         style="stop-color:#000000;stop-opacity:1;"
         offset="0"
         id="stop44" />
      <stop
         style="stop-color:#ff05a5;stop-opacity:1;"
         offset="1"
         id="stop45" />
    </linearGradient>
    <linearGradient
       id="linearGradient47"
       inkscape:collect="always"
       gradientTransform="scale(0.56865192,1.758545)"
       x1="7369.7173"
       y1="1702.2483"
       x2="7383.7988"
       y2="1702.2483"
       gradientUnits="userSpaceOnUse">
      <stop
         style="stop-color:#000000;stop-opacity:1;"
         offset="0"
         id="stop46" />
      <stop
         style="stop-color:#ff05a5;stop-opacity:1;"
         offset="1"
         id="stop47" />
    </linearGradient>
    <linearGradient
       id="linearGradient49"
       inkscape:collect="always"
       gradientTransform="scale(0.30934665,3.2326195)"
       x1="13515.582"
       y1="883.18469"
       x2="13552.907"
       y2="883.18469"
       gradientUnits="userSpaceOnUse">
      <stop
         style="stop-color:#000000;stop-opacity:1;"
         offset="0"
         id="stop48" />
      <stop
         style="stop-color:#ff05a5;stop-opacity:1;"
         offset="1"
         id="stop49" />
    </linearGradient>
    <linearGradient
       id="linearGradient51"
       inkscape:collect="always"
       gradientTransform="scale(0.41911283,2.3859923)"
       x1="9715.7607"
       y1="1214.6355"
       x2="9731.2695"
       y2="1214.6355"
       gradientUnits="userSpaceOnUse">
      <stop
         style="stop-color:#000000;stop-opacity:1;"
         offset="0"
         id="stop50" />
      <stop
         style="stop-color:#ff05a5;stop-opacity:1;"
         offset="1"
         id="stop51" />
    </linearGradient>
    <linearGradient
       id="linearGradient53"
       inkscape:collect="always"
       gradientTransform="scale(0.56865192,1.758545)"
       x1="6965.252"
       y1="1122.2233"
       x2="6979.3335"
       y2="1122.2233"
       gradientUnits="userSpaceOnUse">
      <stop
         style="stop-color:#000000;stop-opacity:1;"
         offset="0"
         id="stop52" />
      <stop
         style="stop-color:#ff05a5;stop-opacity:1;"
         offset="1"
         id="stop53" />
    </linearGradient>
    <linearGradient
       inkscape:collect="always"
       xlink:href="#linearGradient27"
       id="linearGradient1"
       gradientUnits="userSpaceOnUse"
       x1="3613.583"
       y1="1916.417"
       x2="4588.0322"
       y2="2249.354" />
    <linearGradient
       inkscape:collect="always"
       xlink:href="#linearGradient27"
       id="linearGradient2"
       gradientUnits="userSpaceOnUse"
       x1="3613.583"
       y1="1916.417"
       x2="4588.0322"
       y2="2249.354" />
    <linearGradient
       inkscape:collect="always"
       xlink:href="#linearGradient27"
       id="linearGradient3"
       gradientUnits="userSpaceOnUse"
       x1="3613.583"
       y1="1916.417"
       x2="4588.0322"
       y2="2249.354" />
    <linearGradient
       inkscape:collect="always"
       xlink:href="#linearGradient27"
       id="linearGradient4"
       gradientUnits="userSpaceOnUse"
       x1="3613.583"
       y1="1916.417"
       x2="4588.0322"
       y2="2249.354" />
    <linearGradient
       inkscape:collect="always"
       xlink:href="#linearGradient26"
       id="linearGradient5"
       gradientUnits="userSpaceOnUse"
       x1="3613.583"
       y1="1916.417"
       x2="4588.0322"
       y2="2249.354" />
    <linearGradient
       inkscape:collect="always"
       xlink:href="#linearGradient27"
       id="linearGradient6"
       gradientUnits="userSpaceOnUse"
       x1="3613.583"
       y1="1916.417"
       x2="4588.0322"
       y2="2249.354" />
    <linearGradient
       inkscape:collect="always"
       xlink:href="#linearGradient27"
       id="linearGradient7"
       gradientUnits="userSpaceOnUse"
       x1="3613.583"
       y1="1916.417"
       x2="4588.0322"
       y2="2249.354" />
    <linearGradient
       inkscape:collect="always"
       xlink:href="#linearGradient27"
       id="linearGradient8"
       gradientUnits="userSpaceOnUse"
       x1="3613.583"
       y1="1916.417"
       x2="4588.0322"
       y2="2249.354" />
    <linearGradient
       inkscape:collect="always"
       xlink:href="#linearGradient27"
       id="linearGradient9"
       gradientUnits="userSpaceOnUse"
       x1="3613.583"
       y1="1916.417"
       x2="4588.0322"
       y2="2249.354" />
    <linearGradient
       inkscape:collect="always"
       xlink:href="#linearGradient27"
       id="linearGradient10"
       gradientUnits="userSpaceOnUse"
       x1="3613.583"
       y1="1916.417"
       x2="4588.0322"
       y2="2249.354" />
    <linearGradient
       inkscape:collect="always"
       xlink:href="#linearGradient27"
       id="linearGradient11"
       gradientUnits="userSpaceOnUse"
       x1="3613.583"
       y1="1916.417"
       x2="4588.0322"
       y2="2249.354" />
    <linearGradient
       inkscape:collect="always"
       xlink:href="#linearGradient27"
       id="linearGradient12"
       gradientUnits="userSpaceOnUse"
       x1="3613.583"
       y1="1916.417"
       x2="4588.0322"
       y2="2249.354" />
    <linearGradient
       inkscape:collect="always"
       xlink:href="#linearGradient27"
       id="linearGradient13"
       gradientUnits="userSpaceOnUse"
       x1="3613.583"
       y1="1916.417"
       x2="4588.0322"
       y2="2249.354" />
    <linearGradient
       inkscape:collect="always"
       xlink:href="#linearGradient27"
       id="linearGradient14"
       gradientUnits="userSpaceOnUse"
       x1="3613.583"
       y1="1916.417"
       x2="4588.0322"
       y2="2249.354" />
    <linearGradient
       inkscape:collect="always"
       xlink:href="#linearGradient27"
       id="linearGradient15"
       gradientUnits="userSpaceOnUse"
       x1="3613.583"
       y1="1916.417"
       x2="4588.0322"
       y2="2249.354" />
    <linearGradient
       inkscape:collect="always"
       xlink:href="#linearGradient27"
       id="linearGradient16"
       gradientUnits="userSpaceOnUse"
       x1="3613.583"
       y1="1916.417"
       x2="4588.0322"
       y2="2249.354" />
    <linearGradient
       inkscape:collect="always"
       xlink:href="#linearGradient27"
       id="linearGradient17"
       gradientUnits="userSpaceOnUse"
       x1="3613.583"
       y1="1916.417"
       x2="4588.0322"
       y2="2249.354" />
    <linearGradient
       inkscape:collect="always"
       xlink:href="#linearGradient27"
       id="linearGradient18"
       gradientUnits="userSpaceOnUse"
       x1="3613.583"
       y1="1916.417"
       x2="4588.0322"
       y2="2249.354" />
    <linearGradient
       inkscape:collect="always"
       xlink:href="#linearGradient27"
       id="linearGradient19"
       gradientUnits="userSpaceOnUse"
       x1="3613.583"
       y1="1916.417"
       x2="4588.0322"
       y2="2249.354" />
  </defs>
  <g
     inkscape:label="Layer 1"
     inkscape:groupmode="layer"
     id="layer1"
     transform="translate(-4.6433134,-0.30331957)">
    <g
       transform="matrix(0.00458961,0,0,-0.00458961,-4.7653872,18.243707)"
       fill="#000000"
       stroke="none"
       id="g26"
       style="display:inline;fill:url(#linearGradient28);fill-opacity:1"
       inkscape:export-filename="logowebsite\logo-bottom-white-wide.svg"
       inkscape:export-xdpi="96"
       inkscape:export-ydpi="96">
      <path
         d="m 4596,3893 c -4,-9 -2,-21 4,-27 7,-7 10,-2 10,17 0,31 -5,34 -14,10 z"
         id="path2"
         style="fill:url(#linearGradient1);fill-opacity:1" />
      <path
         d="m 4471,3864 c 0,-11 3,-14 6,-6 3,7 2,16 -1,19 -3,4 -6,-2 -5,-13 z"
         id="path3"
         style="fill:url(#linearGradient2);fill-opacity:1" />
      <path
         d="m 4640,3840 c 0,-5 -7,-60 -16,-122 -8,-62 -13,-123 -11,-135 2,-13 0,-23 -4,-23 -11,0 -11,-57 0,-84 5,-12 12,33 20,115 6,74 14,162 17,197 4,34 4,62 0,62 -3,0 -6,-4 -6,-10 z"
         id="path4"
         style="fill:url(#linearGradient3);fill-opacity:1" />
      <path
         d="m 4597,3814 c -4,-4 -7,-17 -7,-28 1,-19 1,-20 11,-3 11,19 8,43 -4,31 z"
         id="path5"
         style="fill:url(#linearGradient4);fill-opacity:1" />
      <path
         d="m 4442,3699 c -7,-41 -10,-95 -8,-120 4,-33 3,-38 -3,-19 -5,14 -9,20 -10,14 -4,-47 -32,-239 -37,-260 -4,-16 -3,-25 2,-21 5,3 11,20 12,39 2,18 6,36 11,41 4,4 4,-14 -1,-40 -5,-26 -9,-59 -8,-71 0,-13 -7,-33 -15,-45 -11,-15 -15,-17 -15,-6 0,8 4,19 9,25 5,5 5,18 1,29 -10,26 -25,-78 -23,-155 2,-63 -18,-205 -27,-190 -3,5 -11,5 -20,0 -15,-9 -22,-73 -40,-350 -16,-238 -20,-276 -31,-259 -5,8 -9,117 -9,242 0,239 -12,294 -24,110 -4,-60 -10,-118 -13,-130 -13,-56 -19,-11 -17,145 1,124 -1,155 -8,122 -5,-25 -10,-122 -11,-217 -1,-94 -6,-175 -10,-179 -4,-4 -7,10 -7,32 -1,35 -2,37 -14,22 -7,-10 -16,-18 -20,-18 -8,0 -7,309 3,393 4,37 4,73 -1,80 -4,7 -8,-6 -8,-30 0,-47 -19,-71 -21,-26 l -1,28 -8,-27 c -4,-15 -11,-132 -15,-260 -4,-128 -9,-235 -11,-237 -2,-2 -6,-2 -9,1 -7,7 -7,330 0,473 7,149 -2,122 -20,-60 -10,-111 -13,-236 -10,-480 3,-181 1,-336 -4,-344 -5,-7 -14,-10 -20,-7 -13,8 -13,3 -11,-77 1,-52 -1,-58 -16,-55 -13,2 -21,16 -25,43 -7,45 -18,199 -19,263 0,23 -4,42 -8,42 -5,0 -7,-45 -4,-100 3,-71 1,-100 -7,-100 -7,0 -11,20 -11,53 -1,28 -3,79 -5,112 -2,33 -7,144 -11,248 -4,111 -10,187 -16,187 -6,0 -9,-104 -8,-282 2,-324 3,-308 -10,-288 -7,10 -8,-15 -4,-77 6,-82 5,-93 -10,-93 -11,0 -16,9 -16,28 0,15 -9,146 -20,292 -11,146 -21,281 -21,300 -1,20 -5,7 -9,-30 -3,-36 -2,-164 2,-284 5,-121 7,-226 6,-234 -3,-13 -123,77 -418,313 -486,389 -1278,1015 -1285,1015 -3,0 -5,-585 -5,-1301 V 618 l 33,7 c 17,4 185,51 372,105 l 340,97 3,477 c 1,262 6,476 10,476 7,0 41,-26 392,-305 118,-94 303,-240 410,-325 107,-85 337,-267 510,-405 503,-400 541,-430 551,-433 5,-2 9,291 9,760 0,606 -3,792 -15,904 -8,78 -16,234 -17,348 -2,113 -7,206 -11,206 -12,0 -4,261 8,280 8,12 11,9 16,-15 6,-27 7,-26 8,13 1,40 -11,57 -22,30 -3,-7 -5,62 -4,155 1,118 -1,167 -9,167 -12,0 -35,-131 -33,-180 1,-14 -2,-81 -6,-150 -12,-207 -13,-228 -14,-403 -1,-114 -4,-166 -11,-162 -13,8 -13,676 0,746 15,83 20,179 11,179 -17,0 -24,-86 -47,-520 -3,-69 -10,-126 -15,-128 -5,-2 -9,-10 -9,-18 0,-9 5,-12 10,-9 6,4 10,-6 10,-24 0,-23 -4,-29 -15,-25 -8,4 -15,16 -15,28 0,17 -2,18 -10,6 -6,-8 -10,-67 -9,-130 1,-152 1,-150 -16,-150 -8,0 -15,-7 -15,-15 0,-8 -4,-15 -9,-15 -5,0 -13,25 -17,56 -9,77 1,646 15,769 31,288 42,417 37,422 -3,4 -6,-9 -7,-28 0,-19 -4,-43 -9,-54 -6,-13 -7,3 -3,45 5,60 23,110 23,65 0,-10 2,-16 5,-13 3,3 2,24 -4,47 -5,24 -5,43 0,47 12,7 11,54 -1,54 -5,0 -10,-8 -10,-17 -1,-10 -7,-58 -15,-108 -8,-49 -24,-180 -35,-290 -12,-110 -22,-201 -24,-202 -1,-1 -2,49 -2,112 0,63 3,115 7,115 9,0 32,217 25,237 -4,9 -4,14 1,10 10,-11 33,155 23,168 -5,6 -4,34 1,63 6,30 9,61 7,70 -2,9 -9,-17 -16,-59 z m -15,-216 c -3,-10 -5,-2 -5,17 0,19 2,27 5,18 2,-10 2,-26 0,-35 z m -10,-85 c -3,-7 -5,-2 -5,12 0,14 2,19 5,13 2,-7 2,-19 0,-25 z m 43,-78 c 0,-5 -4,-10 -10,-10 -5,0 -10,5 -10,10 0,6 5,10 10,10 6,0 10,-4 10,-10 z m -13,-52 c -3,-7 -5,-2 -5,12 0,14 2,19 5,13 2,-7 2,-19 0,-25 z m -1,-45 c -10,-10 -19,5 -10,18 6,11 8,11 12,0 2,-7 1,-15 -2,-18 z m -9,-65 c -2,-13 -4,-5 -4,17 -1,22 1,32 4,23 2,-10 2,-28 0,-40 z m -47,-22 c 0,-2 -7,-7 -16,-10 -8,-3 -12,-2 -9,4 6,10 25,14 25,6 z m 50,-31 c 0,-14 -2,-25 -4,-25 -2,0 -6,11 -8,25 -3,14 -1,25 3,25 5,0 9,-11 9,-25 z m -58,-47 c -8,-8 -9,-4 -5,13 4,13 8,18 11,10 2,-7 -1,-18 -6,-23 z"
         id="path6"
         style="fill:url(#linearGradient5);fill-opacity:1" />
      <path
         d="m 4582,3716 c 2,-19 1,-33 -3,-30 -4,2 -9,-10 -13,-27 -8,-42 -6,-58 4,-34 5,13 8,-3 8,-50 -1,-42 -6,-78 -14,-90 -12,-17 -13,-11 -10,45 4,59 4,61 -5,25 -6,-22 -9,-56 -7,-77 2,-20 1,-35 -2,-33 -3,2 -5,-36 -6,-84 -1,-50 -9,-113 -19,-149 -15,-55 -16,-65 -4,-74 11,-7 11,-11 2,-15 -14,-5 -18,-53 -5,-53 5,0 7,-26 6,-57 l -3,-58 9,50 c 12,72 12,143 -1,147 -7,2 -8,14 -3,33 l 8,30 7,-30 7,-30 1,30 c 3,64 22,259 27,282 4,13 12,22 18,20 8,-3 12,35 14,129 2,95 -1,134 -9,134 -7,0 -10,-13 -7,-34 z"
         id="path7"
         style="fill:url(#linearGradient6);fill-opacity:1" />
      <path
         d="m 4307,3534 c -4,-4 -7,-14 -7,-23 0,-11 3,-12 11,-4 6,6 10,16 7,23 -2,6 -7,8 -11,4 z"
         id="path8"
         style="fill:url(#linearGradient7);fill-opacity:1" />
      <path
         d="m 4586,3393 c -13,-136 -15,-183 -7,-183 9,0 31,145 31,200 0,72 -17,61 -24,-17 z"
         id="path9"
         style="fill:url(#linearGradient8);fill-opacity:1" />
      <path
         d="m 4643,3406 c -7,-22 -11,-42 -8,-44 8,-8 26,40 23,61 -2,17 -6,13 -15,-17 z"
         id="path10"
         style="fill:url(#linearGradient9);fill-opacity:1" />
      <path
         d="m 4645,3235 c -4,-25 -5,-48 -2,-51 3,-3 9,15 12,41 4,25 5,48 2,51 -3,3 -9,-15 -12,-41 z"
         id="path11"
         style="fill:url(#linearGradient10);fill-opacity:1" />
      <path
         d="m 4321,3204 c 0,-11 3,-14 6,-6 3,7 2,16 -1,19 -3,4 -6,-2 -5,-13 z"
         id="path12"
         style="fill:url(#linearGradient11);fill-opacity:1" />
      <path
         d="m 4310,3130 c 0,-5 5,-10 10,-10 6,0 10,5 10,10 0,6 -4,10 -10,10 -5,0 -10,-4 -10,-10 z"
         id="path13"
         style="fill:url(#linearGradient12);fill-opacity:1" />
      <path
         d="m 4753,3062 c -18,-74 -15,-109 3,-42 8,30 13,64 12,75 -2,11 -9,-4 -15,-33 z"
         id="path14"
         style="fill:url(#linearGradient13);fill-opacity:1" />
      <path
         d="m 4307,3063 c -4,-3 -7,-11 -7,-17 0,-6 5,-5 12,2 6,6 9,14 7,17 -3,3 -9,2 -12,-2 z"
         id="path15"
         style="fill:url(#linearGradient14);fill-opacity:1" />
      <path
         d="m 4115,3000 c -4,-34 -5,-63 -2,-66 2,-3 7,23 11,57 4,33 5,63 3,66 -3,2 -8,-23 -12,-57 z"
         id="path16"
         style="fill:url(#linearGradient43);fill-opacity:1" />
      <path
         d="m 4480,3013 c 0,-28 3,-34 10,-23 13,20 13,47 0,55 -6,4 -10,-9 -10,-32 z"
         id="path17"
         style="fill:url(#linearGradient15);fill-opacity:1" />
      <path
         d="m 4685,3017 c -18,-42 -20,-117 -4,-117 7,0 10,15 7,39 -2,22 0,38 3,35 7,-4 21,68 14,75 -3,2 -12,-12 -20,-32 z"
         id="path18"
         style="fill:url(#linearGradient45);fill-opacity:1" />
      <path
         d="m 4082,2990 c 0,-19 2,-27 5,-17 2,9 2,25 0,35 -3,9 -5,1 -5,-18 z"
         id="path19"
         style="fill:url(#linearGradient16);fill-opacity:1" />
      <path
         d="m 4191,3004 c 0,-11 3,-14 6,-6 3,7 2,16 -1,19 -3,4 -6,-2 -5,-13 z"
         id="path20"
         style="fill:url(#linearGradient47);fill-opacity:1" />
      <path
         d="m 4301,3004 c 0,-11 3,-14 6,-6 3,7 2,16 -1,19 -3,4 -6,-2 -5,-13 z"
         id="path21"
         style="fill:url(#linearGradient17);fill-opacity:1" />
      <path
         d="m 4181,2920 2,-65 7,55 c 4,30 3,59 -1,65 -5,5 -8,-19 -8,-55 z"
         id="path22"
         style="fill:url(#linearGradient49);fill-opacity:1" />
      <path
         d="m 4472,2945 c 0,-16 2,-22 5,-12 2,9 2,23 0,30 -3,6 -5,-1 -5,-18 z"
         id="path23"
         style="fill:url(#linearGradient18);fill-opacity:1" />
      <path
         d="m 4072,2915 c 0,-16 2,-22 5,-12 2,9 2,23 0,30 -3,6 -5,-1 -5,-18 z"
         id="path24"
         style="fill:url(#linearGradient51);fill-opacity:1" />
      <path
         d="m 4508,2934 c -4,-5 -9,-57 -12,-115 -2,-57 -2,-90 1,-74 2,17 11,37 19,46 8,9 12,18 10,20 -3,3 -1,21 3,42 5,20 5,37 1,37 -5,0 -10,12 -12,28 -2,15 -6,22 -10,16 z"
         id="path25"
         style="fill:url(#linearGradient19);fill-opacity:1" />
      <path
         d="m 3961,1984 c 0,-11 3,-14 6,-6 3,7 2,16 -1,19 -3,4 -6,-2 -5,-13 z"
         id="path26"
         style="fill:url(#linearGradient53);fill-opacity:1" />
    </g>
    <path
       style="font-size:9.35127px;font-family:'Malgun Gothic';-inkscape-font-specification:'Malgun Gothic';fill:#ffffff;stroke-width:0.779276"
       d="M 25.591805,9.242095 H 24.664897 L 21.158171,3.817628 Q 21.048585,3.6486841 20.948132,3.3975514 h -0.02283 q 0.03196,0.2602648 0.03196,0.917776 V 9.242095 h -0.7397 V 2.5208699 h 0.977135 l 3.410839,5.3514102 q 0.237435,0.36985 0.269397,0.4429068 h 0.01826 Q 24.842973,7.9818653 24.842973,7.3197881 V 2.5208699 h 0.748832 z m 1.337852,-3.2784237 q 0,-1.6163816 0.872116,-2.5843841 0.872115,-0.9680025 2.378912,-0.9680025 1.388079,0 2.237364,0.9451723 0.849285,0.9406062 0.849285,2.4382705 0,1.6118155 -0.858417,2.5889502 -0.858417,0.9725685 -2.337818,0.9725685 -1.415475,0 -2.278458,-0.9451722 -0.862984,-0.9497384 -0.862984,-2.4474027 z m 0.776229,-0.068491 q 0,1.2191352 0.643813,2.0044958 0.643813,0.7853605 1.716834,0.7853605 1.146079,0 1.785326,-0.7397 0.643813,-0.7442661 0.643813,-2.0410242 0,-1.3195884 -0.620983,-2.0684205 Q 31.258272,3.08706 30.125892,3.08706 q -1.100418,0 -1.762495,0.7944927 -0.657511,0.7899266 -0.657511,2.0136279 z M 39.363011,9.242095 H 38.477197 L 37.349383,7.3517504 Q 36.988665,6.7490319 36.701004,6.5572578 36.413343,6.3654837 36.006964,6.3654837 H 35.340321 V 9.242095 H 34.605187 V 2.5208699 h 1.9771 q 0.926908,0 1.470268,0.4794352 0.547926,0.4794352 0.547926,1.3104563 0,1.3926451 -1.488533,1.8081556 v 0.018264 q 0.283096,0.1232834 0.465738,0.3287556 0.187208,0.2009062 0.529661,0.7579642 z m -4.02269,-6.0317516 v 2.4702329 h 1.100418 q 0.620983,0 0.999965,-0.360718 0.383548,-0.3652839 0.383548,-0.9497383 0,-0.547926 -0.356152,-0.8538513 Q 37.116515,3.2103434 36.449871,3.2103434 Z M 45.458687,9.242095 H 44.641364 L 43.910796,7.3334862 H 41.029618 L 40.349277,9.242095 h -0.821889 l 2.584384,-6.7212251 h 0.748832 z M 43.659663,6.6577109 42.586641,3.7537033 Q 42.527283,3.5938916 42.486188,3.3107965 h -0.02283 q -0.05023,0.3150574 -0.109585,0.4429068 l -1.06389,2.9040076 z"
       id="text53"
       aria-label="NORA" />
    <path
       style="font-size:4.88668px;font-family:'Malgun Gothic';-inkscape-font-specification:'Malgun Gothic';fill:#ffffff;stroke-width:0.407223"
       d="m 23.503767,14.2138 v -2.371757 q 0,-0.274399 0.03579,-0.677646 h -0.01193 q -0.05727,0.236222 -0.102602,0.331665 L 22.20097,14.2138 h -0.174183 l -1.22167,-2.69865 q -0.04772,-0.102601 -0.100215,-0.350753 h -0.01193 q 0.01909,0.131235 0.01909,0.670487 V 14.2138 h -0.374614 v -3.512301 h 0.503462 l 1.097594,2.474359 q 0.13362,0.300645 0.164639,0.415177 h 0.01432 q 0.03579,-0.09783 0.171797,-0.427107 l 1.123841,-2.462429 h 0.474829 V 14.2138 Z m 4.006219,0 H 27.082878 L 26.701107,13.216421 H 25.195494 L 24.839969,14.2138 h -0.429494 l 1.350518,-3.512301 h 0.391317 z m -0.940113,-1.350518 -0.560728,-1.517543 q -0.03102,-0.08351 -0.05249,-0.231449 h -0.01193 q -0.02625,0.164639 -0.05727,0.231449 L 25.3315,12.863282 Z m 3.87737,1.350518 h -0.546411 l -1.376765,-1.6106 q -0.07635,-0.08828 -0.09306,-0.116917 H 28.41908 V 14.2138 h -0.384158 v -3.512301 h 0.384158 v 1.651163 h 0.01193 q 0.03579,-0.05488 0.09306,-0.114531 l 1.336202,-1.536632 h 0.479601 l -1.522316,1.684569 z m 2.316878,0 h -1.844435 v -3.512301 h 1.765694 v 0.355525 h -1.381537 v 1.193037 h 1.27655 V 12.6032 h -1.27655 v 1.257461 h 1.460278 z m 0.450968,-1.713201 q 0,-0.84467 0.45574,-1.350518 0.45574,-0.505848 1.243145,-0.505848 0.725366,0 1.169176,0.493918 0.44381,0.491531 0.44381,1.274163 0,0.842285 -0.448582,1.352904 -0.448582,0.508234 -1.22167,0.508234 -0.739683,0 -1.190651,-0.493917 -0.450968,-0.496304 -0.450968,-1.278936 z m 0.405633,-0.03579 q 0,0.637082 0.336436,1.047487 0.336436,0.410404 0.897164,0.410404 0.598905,0 0.932955,-0.386544 0.336436,-0.38893 0.336436,-1.066575 0,-0.689575 -0.324506,-1.080892 -0.32212,-0.391316 -0.913866,-0.391316 -0.575044,0 -0.921025,0.415177 -0.343594,0.412791 -0.343594,1.052259 z m 6.194249,-1.763309 -1.307569,3.512301 h -0.422335 l -1.278936,-3.512301 h 0.431879 l 0.987835,2.80841 q 0.04534,0.131234 0.0692,0.307803 h 0.01193 q 0.01909,-0.147937 0.07874,-0.312576 l 1.011696,-2.803637 z M 42.170026,14.2138 H 40.32559 v -3.512301 h 1.765695 v 0.355525 h -1.381537 v 1.193037 h 1.27655 V 12.6032 h -1.27655 v 1.257461 h 1.460278 z m 3.168707,0 H 44.875835 L 44.286474,13.225966 Q 44.097975,12.911004 43.947652,12.810789 43.797329,12.710574 43.584969,12.710574 H 43.236602 V 14.2138 h -0.384158 v -3.512301 h 1.03317 q 0.484373,0 0.768316,0.250538 0.286329,0.250538 0.286329,0.684803 0,0.727753 -0.77786,0.944886 v 0.0095 q 0.147936,0.06442 0.243379,0.171797 0.09783,0.104988 0.276785,0.396089 z m -2.102131,-3.152004 v 1.290866 h 0.575044 q 0.324506,0 0.52255,-0.188499 0.20043,-0.190886 0.20043,-0.496304 0,-0.286329 -0.186114,-0.446196 -0.183727,-0.159867 -0.532094,-0.159867 z"
       id="text53-27"
       aria-label="MAKEOVER" />
    <path
       style="font-size:2.84743px;font-family:'Edwardian Script ITC';-inkscape-font-specification:'Edwardian Script ITC';fill:#ffffff;stroke-width:0.0333684"
       d="m 38.972151,15.002101 -0.624266,0.985756 q 0.145987,-0.20021 0.218285,-0.268337 0.0723,-0.06813 0.137644,-0.06813 0.07786,0 0.126522,0.06396 0.05005,0.06257 0.05005,0.158499 0,0.209943 -0.266946,0.412933 -0.19882,0.151548 -0.353148,0.151548 -0.0723,0 -0.11818,-0.05422 -0.04449,-0.05561 -0.04449,-0.143206 0,-0.104276 0.133473,-0.31839 L 38.8067,14.99932 q 0.03754,0.01112 0.08064,0.01112 0.03337,0 0.08481,-0.0083 z m -0.193258,0.7633 q 0,-0.09315 -0.07786,-0.09315 -0.101495,0 -0.346196,0.335074 -0.183526,0.250262 -0.183526,0.336463 0,0.07369 0.0723,0.07369 0.125132,0 0.329513,-0.248872 0.205771,-0.250263 0.205771,-0.403201 z m 1.070567,0.205772 q 0,0.02085 -0.152938,0.190477 -0.169623,0.186307 -0.442131,0.336464 l -0.06813,0.12235 q -0.2016,0.361491 -0.421275,0.538065 -0.226626,0.182135 -0.393468,0.182135 -0.057,0 -0.09454,-0.03615 -0.03893,-0.03615 -0.03893,-0.08898 0,-0.27946 0.643731,-0.578384 0.05283,-0.02642 0.158499,-0.07369 l 0.02085,-0.01251 0.244701,-0.435178 q -0.144596,0.198819 -0.209942,0.261385 -0.06535,0.06117 -0.132083,0.06117 -0.057,0 -0.100105,-0.04866 -0.04171,-0.04866 -0.04171,-0.114008 0,-0.07925 0.09871,-0.247482 l 0.214114,-0.36149 q 0.03198,0.0056 0.07369,0.0056 0.03615,0 0.100105,-0.0097 l -0.273898,0.444911 q -0.116789,0.189087 -0.116789,0.247481 0,0.06257 0.057,0.06257 0.150157,0 0.461595,-0.532503 l 0.127912,-0.218284 q 0.03198,0.0056 0.07786,0.0056 0.03754,0 0.09315,-0.0097 -0.172403,0.273898 -0.467156,0.80362 0.169622,-0.08759 0.286411,-0.189087 0.116789,-0.102886 0.261385,-0.289192 0.01946,-0.02503 0.02503,-0.02503 0.0083,0 0.0083,0.0083 z m -0.80223,0.60341 q -0.02225,0.01251 -0.157109,0.07925 -0.632608,0.314218 -0.632608,0.564481 0,0.104276 0.116789,0.104276 0.147377,0 0.293363,-0.15989 0.145987,-0.15989 0.36149,-0.56031 z m 4.002808,-1.92563 q 0,0.09872 -0.243311,0.379565 -0.24192,0.28085 -0.471327,0.449082 -0.173794,0.380954 -0.35871,0.556138 -0.184916,0.175184 -0.499134,0.255824 0.553358,0.147377 0.661805,0.171013 0.109837,0.02503 0.209942,0.02503 0.144596,0 0.261385,-0.104276 0.01251,-0.007 0.01529,-0.007 0.007,0.0028 0.0083,0.007 0,0.02224 -0.07369,0.07369 -0.136254,0.09315 -0.396249,0.09315 -0.190478,0 -0.367052,-0.03615 -0.176574,-0.03615 -0.538064,-0.151547 -0.232188,0.04588 -0.478279,0.04588 -0.436569,0 -0.436569,-0.133473 0,-0.125131 0.333683,-0.125131 0.258605,0 0.771643,0.133473 0.152938,-0.05979 0.271117,-0.176574 0.11957,-0.11818 0.300315,-0.390688 -0.414323,0.361491 -0.774423,0.361491 -0.244701,0 -0.390687,-0.144596 -0.144596,-0.144597 -0.144596,-0.390688 0,-0.376784 0.355928,-0.714638 0.35732,-0.337854 0.754959,-0.337854 0.183525,0 0.291972,0.09454 0.109838,0.09454 0.109838,0.255824 0,0.285021 -0.266947,0.589507 -0.266946,0.304486 -0.515818,0.304486 -0.105667,0 -0.179355,-0.06674 -0.0723,-0.06674 -0.0723,-0.164061 0,-0.07508 0.04588,-0.129302 0.04727,-0.05561 0.111228,-0.05561 0.0862,0 0.0862,0.08481 0,0.04588 -0.03337,0.08203 -0.03337,0.03476 -0.07508,0.03476 -0.06813,0 -0.06535,-0.06257 0.0014,-0.04032 -0.0097,-0.04032 -0.03059,0 -0.03059,0.0862 0,0.08759 0.06535,0.145987 0.06674,0.05839 0.165451,0.05839 0.229407,0 0.488011,-0.298924 0.259995,-0.300315 0.259995,-0.565871 0,-0.143206 -0.09871,-0.234969 -0.09732,-0.09315 -0.250263,-0.09315 -0.368442,0 -0.706296,0.368442 -0.336464,0.368442 -0.336464,0.767471 0,0.187697 0.11957,0.294754 0.12096,0.107056 0.330903,0.107056 0.180745,0 0.358709,-0.08898 0.179355,-0.08898 0.44074,-0.310047 0.218284,-0.365661 0.316999,-0.507477 0.09454,-0.136254 0.226626,-0.275288 0.257215,-0.269728 0.393469,-0.269728 0.057,0 0.057,0.05005 z m -0.02364,0 q 0,-0.03059 -0.03337,-0.03059 -0.102886,0 -0.282241,0.209943 -0.15989,0.187696 -0.355929,0.607581 0.23775,-0.193258 0.454644,-0.446301 0.216894,-0.254434 0.216894,-0.340635 z m -1.813012,1.697613 q -0.488012,-0.154328 -0.663196,-0.154328 -0.182135,0 -0.182135,0.08064 0,0.108447 0.426837,0.108447 0.230797,0 0.418494,-0.03476 z m 1.758788,-0.950997 q 0,0.04866 -0.04171,0.09176 -0.04032,0.04171 -0.08898,0.04171 -0.06257,0 -0.06257,-0.06257 0,-0.04588 0.0431,-0.08759 0.0431,-0.0431 0.09037,-0.0431 0.05978,0 0.05978,0.05978 z m 0.01947,0.575604 q -0.0014,0.0042 -0.0139,0.02224 l -0.05978,0.08203 q -0.261385,0.36288 -0.39903,0.36288 -0.06535,0 -0.109837,-0.04588 -0.0431,-0.04727 -0.0431,-0.116789 0,-0.08064 0.09593,-0.244702 l 0.216894,-0.368441 q 0.0431,0.0097 0.06813,0.0097 0.03754,0 0.105667,-0.0097 L 42.537,16.181115 q -0.06813,0.112618 -0.06813,0.173793 0,0.06257 0.06535,0.06257 0.123741,0 0.435179,-0.44074 0.007,-0.0139 0.0139,-0.0139 0.0083,0 0.0083,0.0083 z m 1.116449,0 q 0,0.0292 -0.201601,0.269727 -0.165451,0.197429 -0.259995,0.197429 -0.06256,0 -0.105666,-0.04866 -0.04171,-0.04866 -0.04171,-0.11957 0,-0.06256 0.02503,-0.115399 0.02642,-0.05422 0.134864,-0.212723 0.112618,-0.166841 0.112618,-0.212723 0,-0.057 -0.05978,-0.057 -0.202991,0 -0.625656,0.753568 -0.06813,-0.0056 -0.08203,-0.0056 -0.04866,0 -0.09176,0.0056 L 43.129287,16.0824 q 0.184917,-0.294753 0.184917,-0.368442 0,-0.04171 -0.03476,-0.04171 -0.07091,0 -0.27946,0.298925 -0.01251,0.01807 -0.01947,0.01946 -0.007,0 -0.0083,-0.0083 0.0014,-0.007 0.0056,-0.01112 l 0.02642,-0.03476 q 0.212723,-0.285021 0.286412,-0.285021 0.04727,0 0.08064,0.0431 0.03337,0.0431 0.03337,0.102885 0,0.08898 -0.104276,0.247482 0.164061,-0.226627 0.251653,-0.310047 0.08898,-0.08342 0.164061,-0.08342 0.06117,0 0.102885,0.05005 0.04171,0.05005 0.04171,0.123741 0,0.09315 -0.127912,0.285021 -0.130693,0.196039 -0.130693,0.250263 0,0.057 0.05701,0.057 0.12374,0 0.426836,-0.44074 0.007,-0.0139 0.0139,-0.0139 0.0083,0 0.0083,0.0083 z m 0.513038,-0.31978 -0.01112,0.02085 h -0.182135 l -0.310048,0.529722 q -0.057,0.09593 -0.057,0.152938 0,0.06257 0.06535,0.06257 0.126522,0 0.426837,-0.44074 0.0097,-0.0139 0.01668,-0.0139 0.0083,0 0.0083,0.0083 -0.0014,0.0042 -0.0139,0.02224 l -0.05978,0.08203 q -0.261386,0.36288 -0.393469,0.36288 -0.06535,0 -0.109837,-0.04727 -0.0431,-0.04727 -0.0431,-0.118179 0,-0.08342 0.07369,-0.208552 l 0.233578,-0.392078 h -0.141815 l 0.0139,-0.02085 h 0.139035 l 0.16267,-0.269727 q 0.04171,0.01112 0.07925,0.01112 0.03893,0 0.08064,-0.01112 l -0.15989,0.269727 z m 0.848111,0.31978 q 0,0.03198 -0.2016,0.269727 -0.166842,0.197429 -0.264166,0.197429 -0.06117,0 -0.104276,-0.04866 -0.04171,-0.05005 -0.04171,-0.11957 0,-0.05422 0.05422,-0.151548 l -0.02781,0.03754 q -0.127912,0.164061 -0.187696,0.219674 -0.06535,0.06257 -0.123741,0.06257 -0.06118,0 -0.102886,-0.04727 -0.04171,-0.04866 -0.04171,-0.118179 0,-0.08064 0.06256,-0.184916 l 0.253043,-0.425446 q 0.04727,0.0097 0.07369,0.0097 0.02642,0 0.09454,-0.0097 l -0.330902,0.545016 q -0.05005,0.08342 -0.05005,0.147376 0,0.06257 0.05283,0.06257 0.140426,0 0.450473,-0.524161 l 0.136254,-0.230797 q 0.0431,0.0097 0.0723,0.0097 0.03476,0 0.09871,-0.0097 l -0.222455,0.36288 q -0.1585,0.258605 -0.1585,0.332293 0,0.05978 0.057,0.05978 0.111227,0 0.36149,-0.350367 l 0.0431,-0.05979 0.02503,-0.03059 q 0.007,-0.0139 0.0139,-0.0139 0.0083,0 0.0083,0.0083 z"
       id="text1"
       aria-label="by Lintu" />
  </g>
</svg>
