<?xml version="1.0" standalone="no"?>
<!DOCTYPE svg PUBLIC "-//W3C//DTD SVG 20010904//EN"
 "http://www.w3.org/TR/2001/REC-SVG-20010904/DTD/svg10.dtd">
<svg version="1.0" xmlns="http://www.w3.org/2000/svg"
 width="960.000000pt" height="960.000000pt" viewBox="0 0 960.000000 960.000000"
 preserveAspectRatio="xMidYMid meet">
<metadata>
Created by potrace 1.14, written by Peter Selinger 2001-2017
</metadata>
<g transform="translate(0.000000,960.000000) scale(0.100000,-0.100000)"
fill="#000000" stroke="none">
<path d="M7980 9570 c-23 -44 -10 -113 19 -96 11 7 9 101 -2 112 -3 3 -11 -4
-17 -16z"/>
<path d="M7638 9493 c-6 -21 0 -43 12 -43 9 0 7 47 -2 56 -3 3 -8 -3 -10 -13z"/>
<path d="M8089 9418 c-2 -20 -6 -58 -14 -123 -4 -33 -9 -73 -11 -90 -1 -16 -4
-30 -5 -30 -1 0 -3 -9 -4 -20 -1 -11 -5 -42 -9 -70 -12 -95 -15 -115 -22 -203
-4 -48 -8 -114 -8 -148 -1 -38 -7 -68 -16 -79 -18 -22 -18 -157 0 -200 l13
-30 8 35 c9 38 28 179 34 245 1 22 6 76 11 120 4 44 8 96 10 115 1 19 2 35 3
35 1 0 4 34 6 75 3 41 8 95 10 120 13 114 16 260 6 260 -6 0 -11 -6 -12 -12z"/>
<path d="M7974 9337 c-6 -7 -11 -19 -11 -27 0 -8 -3 -27 -6 -41 -6 -30 7 -60
16 -37 3 7 12 29 21 49 12 29 13 40 3 52 -9 12 -14 13 -23 4z"/>
<path d="M7585 9153 c-5 -21 -9 -42 -10 -48 -29 -125 -45 -362 -32 -445 l6
-35 -15 33 c-16 37 -34 42 -35 10 -1 -30 -5 -62 -14 -128 -4 -30 -9 -66 -10
-80 -2 -14 -4 -25 -5 -25 -1 0 -3 -18 -5 -40 -1 -22 -5 -53 -8 -70 -3 -16 -9
-50 -12 -75 -4 -25 -9 -52 -10 -60 -2 -8 -6 -37 -9 -63 -6 -44 -21 -126 -28
-156 -2 -8 2 -15 9 -18 13 -5 29 42 38 111 3 27 13 61 21 75 14 25 14 23 8
-29 -8 -75 -11 -95 -14 -95 -1 0 -3 -22 -6 -50 -12 -151 -20 -186 -55 -227
-27 -32 -28 -32 -29 -10 0 13 7 39 16 57 16 34 16 90 0 90 -26 0 -45 -140 -51
-375 -5 -185 -11 -267 -25 -355 -5 -33 -12 -78 -15 -100 -3 -22 -11 -52 -17
-67 -8 -22 -14 -26 -28 -18 -31 16 -60 -17 -74 -86 -7 -33 -12 -72 -12 -87 1
-15 -1 -27 -4 -27 -3 0 -6 -15 -6 -32 -1 -18 -4 -58 -7 -88 -3 -30 -9 -91 -12
-135 -3 -44 -8 -107 -10 -140 -3 -33 -7 -96 -10 -140 -10 -158 -15 -231 -20
-290 -3 -33 -8 -98 -11 -145 -12 -211 -12 -208 -29 -368 -3 -29 -11 -65 -16
-80 -9 -24 -12 -25 -20 -10 -12 22 -18 179 -24 633 -5 442 -11 575 -27 590 -6
7 -19 -56 -23 -115 -3 -37 -13 -161 -20 -245 -5 -58 -14 -158 -20 -215 -2 -22
-9 -59 -16 -82 -9 -37 -12 -40 -21 -23 -14 24 -17 94 -18 474 -1 193 -5 310
-10 305 -17 -17 -27 -127 -35 -409 -3 -99 -7 -199 -8 -223 -1 -23 2 -42 6 -42
5 0 5 -5 1 -11 -4 -7 -8 -50 -9 -98 -4 -118 -15 -285 -21 -290 -12 -13 -20 31
-23 137 -1 31 -23 27 -44 -8 -21 -36 -42 -39 -51 -7 -6 25 1 870 8 932 3 22 8
97 11 166 4 100 2 128 -8 132 -9 3 -14 -7 -15 -37 -2 -33 -6 -78 -15 -146 -2
-15 -23 -27 -32 -19 -11 11 -11 14 -13 78 -2 47 -9 51 -16 10 -2 -13 -5 -24
-6 -24 -5 0 -12 -94 -24 -290 -6 -83 -13 -263 -21 -490 -13 -374 -22 -545 -30
-553 -3 -3 -11 0 -18 7 -9 9 -12 136 -11 549 0 295 3 600 7 677 10 208 11 264
5 270 -6 7 -15 -34 -23 -110 -3 -27 -8 -61 -10 -75 -10 -52 -34 -316 -40 -440
-2 -36 -4 -67 -6 -70 -1 -3 -2 -428 -3 -946 -1 -882 -2 -942 -19 -958 -10 -10
-28 -16 -45 -14 l-27 3 -2 -165 c-2 -90 -5 -170 -8 -178 -9 -24 -58 -8 -78 25
-20 34 -22 42 -31 123 -20 180 -31 331 -40 560 -7 157 -12 200 -27 200 -12 0
-13 -55 -10 -352 2 -90 -2 -145 -10 -159 -10 -20 -13 -20 -21 -6 -11 20 -15
67 -23 277 -7 172 -11 247 -20 415 -3 55 -7 163 -10 240 -2 77 -5 140 -5 140
-1 0 -3 47 -5 105 -4 101 -9 182 -20 318 -4 60 -23 118 -26 82 0 -8 -3 -35 -5
-60 -3 -25 -6 -358 -8 -740 -2 -382 -4 -704 -5 -715 -2 -19 -2 -19 -15 -2 -8
10 -17 14 -20 9 -3 -5 -3 -65 0 -133 10 -275 10 -290 -2 -307 -10 -13 -16 -14
-37 -5 -14 7 -26 20 -26 30 -1 25 -9 165 -15 248 -3 39 -8 102 -10 140 -12
173 -17 233 -21 280 -2 28 -7 93 -10 145 -3 52 -8 109 -10 127 -2 17 -7 80
-11 140 -4 59 -8 124 -9 143 -12 146 -24 329 -24 379 -1 39 -11 36 -19 -6 -7
-34 -5 -799 3 -978 11 -252 12 -465 3 -465 -9 0 -135 78 -161 100 -7 6 -37 28
-67 49 -30 22 -59 44 -65 48 -5 5 -28 22 -50 38 -22 17 -42 32 -45 35 -3 3
-32 25 -65 50 -33 25 -69 53 -80 62 -11 9 -81 64 -155 123 -74 58 -153 120
-174 138 -22 18 -60 48 -85 67 -25 19 -74 57 -107 85 -34 27 -74 60 -90 72
-16 12 -58 46 -95 75 -36 29 -80 64 -98 78 -18 14 -38 30 -44 35 -7 6 -147
118 -312 249 -165 130 -309 245 -320 254 -11 9 -90 72 -175 140 -85 67 -168
133 -185 147 -16 13 -104 83 -195 155 -91 72 -173 137 -183 145 -9 8 -19 15
-22 15 -3 0 -13 8 -23 18 -23 22 -52 44 -132 107 -36 27 -70 54 -76 60 -6 5
-46 37 -89 70 -43 33 -88 70 -101 83 -13 12 -25 22 -28 22 -4 0 -197 152 -362
284 -28 23 -66 52 -84 66 -122 93 -426 335 -428 342 -2 4 -8 8 -14 8 -6 0 -20
9 -32 20 -11 11 -88 71 -171 135 -82 64 -163 127 -180 140 -37 31 -45 31 -45
3 -1 -13 -3 -1572 -6 -3466 l-6 -3444 37 6 c44 7 401 105 570 155 39 12 81 24
95 27 14 3 50 12 80 21 30 9 60 18 65 19 6 2 33 10 60 18 150 44 430 123 465
132 8 2 78 22 155 45 77 22 174 50 215 61 41 11 82 22 90 26 8 3 17 6 20 6 3
1 35 10 72 20 l67 19 1 361 c1 198 3 600 6 891 4 533 5 545 3 568 -1 31 12
580 15 640 3 38 7 71 10 74 5 5 42 -15 71 -39 5 -4 57 -45 115 -90 58 -45 130
-101 160 -125 30 -24 64 -50 75 -59 11 -8 34 -26 50 -40 17 -13 55 -43 85 -66
30 -23 60 -47 65 -52 6 -6 28 -24 50 -41 22 -16 47 -35 55 -42 8 -6 42 -33 75
-60 33 -26 62 -51 63 -55 2 -4 10 -8 18 -8 8 0 14 -3 14 -7 0 -5 41 -39 91
-78 51 -38 102 -79 113 -91 12 -12 27 -23 33 -25 5 -2 30 -21 54 -41 47 -39
398 -317 514 -407 39 -30 75 -59 80 -65 6 -6 35 -30 66 -53 31 -23 62 -47 70
-55 8 -7 43 -35 79 -63 36 -27 70 -54 77 -60 15 -12 27 -21 83 -65 25 -19 47
-37 50 -40 3 -3 21 -17 40 -31 19 -15 45 -35 57 -45 12 -11 35 -29 50 -41 15
-12 38 -30 49 -40 12 -10 36 -29 54 -43 18 -14 93 -72 165 -130 73 -58 147
-116 165 -130 18 -14 38 -30 44 -35 6 -6 31 -26 56 -45 61 -47 80 -63 95 -77
8 -7 18 -13 23 -13 6 0 12 -4 14 -9 2 -4 138 -115 303 -246 165 -130 305 -243
311 -251 6 -8 14 -14 18 -14 9 0 110 -82 114 -92 2 -5 10 -8 18 -8 8 0 14 -4
14 -8 0 -5 21 -24 48 -42 26 -19 52 -39 57 -45 6 -6 53 -45 105 -86 52 -40
100 -78 106 -84 7 -5 24 -19 40 -30 15 -11 32 -25 38 -30 6 -6 29 -24 51 -40
22 -17 42 -33 45 -36 3 -4 26 -22 51 -41 25 -20 54 -42 65 -51 10 -9 48 -39
84 -67 36 -28 73 -57 82 -65 124 -102 397 -309 399 -303 28 70 31 3540 4 4138
-6 141 -14 268 -19 298 -6 34 -16 160 -22 277 -2 50 -6 122 -9 160 -4 66 -9
236 -20 640 -7 270 -14 375 -27 398 -18 35 -13 554 8 673 8 45 25 94 33 94 9
0 31 -68 31 -94 0 -10 3 -15 8 -13 4 3 6 33 6 66 -2 93 -4 105 -14 121 -9 13
-12 13 -24 -3 -10 -13 -16 -15 -21 -7 -4 7 -8 190 -10 408 -1 219 -6 405 -10
414 -16 39 -44 -17 -60 -119 -2 -12 -6 -34 -9 -50 -22 -98 -26 -137 -31 -303
-2 -80 -7 -195 -10 -255 -3 -61 -8 -144 -10 -185 -10 -191 -16 -300 -20 -355
-2 -33 -7 -204 -10 -380 -9 -479 -13 -648 -19 -670 -2 -11 -5 -27 -5 -35 -1
-11 -3 -12 -9 -2 -10 14 -14 68 -16 209 0 57 -3 103 -6 103 -5 0 -3 1104 2
1198 2 30 0 56 -5 59 -4 2 -4 9 -1 15 4 5 8 67 10 137 3 125 17 316 24 316 6
0 18 107 26 230 10 156 9 188 -8 183 -35 -12 -50 -139 -83 -683 -3 -49 -8
-119 -10 -155 -2 -36 -7 -117 -10 -180 -3 -63 -8 -149 -10 -190 -2 -41 -7
-120 -10 -175 -13 -234 -27 -345 -45 -345 -5 0 -11 -8 -15 -19 -6 -20 3 -53
14 -47 15 10 30 -12 34 -50 4 -49 -7 -84 -27 -84 -22 0 -53 51 -51 83 2 29 -6
34 -24 14 -19 -23 -23 -92 -25 -415 -2 -196 -6 -316 -13 -323 -5 -5 -20 -11
-32 -12 -16 -1 -27 -12 -38 -39 -18 -44 -30 -48 -43 -13 -29 78 -34 157 -33
595 0 688 22 1410 49 1608 3 26 7 61 8 77 6 65 17 182 22 220 3 22 7 63 10 90
2 28 6 61 8 74 3 12 8 57 11 100 6 92 13 167 20 215 2 20 7 85 10 144 4 59 8
116 10 128 2 11 -1 27 -6 35 -5 8 -9 10 -9 4 -2 -22 -11 -102 -16 -135 -3 -19
-6 -44 -8 -54 -1 -11 -8 -22 -14 -24 -11 -3 -9 109 3 168 2 14 7 41 11 60 7
43 12 64 14 68 3 3 7 19 9 32 0 6 6 10 11 10 6 0 10 -15 10 -34 0 -19 4 -37
10 -41 10 -6 7 58 -7 140 -11 64 -8 102 10 119 18 19 15 115 -4 127 -22 13
-34 -18 -45 -116 -8 -79 -12 -107 -19 -145 -4 -19 -8 -46 -10 -60 -10 -74 -16
-118 -20 -140 -3 -14 -7 -47 -10 -75 -3 -27 -7 -63 -10 -80 -2 -16 -6 -59 -10
-95 -3 -36 -9 -78 -11 -95 -3 -16 -7 -50 -9 -75 -7 -65 -17 -164 -31 -275 -3
-27 -7 -72 -9 -100 -2 -27 -6 -61 -9 -75 -2 -14 -7 -47 -10 -75 -3 -27 -8 -77
-12 -110 -4 -33 -7 -66 -7 -72 0 -7 -4 -13 -8 -13 -7 0 -4 509 3 540 2 8 6 20
10 25 6 10 19 69 23 109 1 12 3 21 4 21 1 0 4 14 5 30 2 17 6 55 10 85 10 89
17 160 20 232 2 37 6 71 9 75 3 5 2 15 -3 23 -5 8 -5 22 1 32 5 10 6 18 1 18
-4 0 -8 9 -9 20 -1 11 2 20 7 20 8 0 27 55 36 105 2 11 6 34 9 50 12 62 19
152 17 225 -3 123 -3 194 1 215 2 11 7 47 11 80 4 33 9 69 11 81 6 40 -12 47
-20 7z m-60 -658 c-5 -48 -7 -52 -14 -26 -4 14 -5 41 -2 60 3 29 5 32 11 16 4
-11 6 -33 5 -50z m-30 -232 c3 -18 1 -35 -5 -38 -6 -4 -10 10 -10 36 0 48 6
49 15 2z m99 -219 c22 -8 20 -31 -4 -44 -15 -8 -21 -6 -29 8 -7 13 -7 22 1 30
14 14 12 14 32 6z m-18 -129 c0 -19 -4 -35 -8 -35 -4 0 -8 16 -8 35 0 19 4 35
8 35 4 0 8 -16 8 -35z m2 -132 c-3 -18 -16 -33 -29 -33 -4 0 -9 12 -12 27 -6
32 22 62 36 37 4 -7 7 -22 5 -31z m-28 -144 c0 -27 -3 -49 -8 -49 -4 0 -7 24
-7 54 0 30 3 52 8 49 4 -2 7 -26 7 -54z m-130 -105 c0 -12 -35 -33 -54 -34
-18 0 -18 1 -1 20 17 19 55 28 55 14z m126 -46 c6 -13 9 -33 8 -45 -1 -13 -2
-33 -3 -45 -1 -21 -2 -22 -12 -5 -15 25 -24 117 -12 117 6 0 14 -10 19 -22z
m-130 -125 c-3 -15 -12 -34 -21 -42 -13 -14 -15 -14 -15 1 0 26 18 68 30 68 6
0 8 -12 6 -27z"/>
<path d="M7936 9149 c-4 -13 -5 -49 -3 -79 3 -41 -1 -61 -15 -80 -18 -25 -50
-164 -40 -175 9 -9 24 -6 17 4 -3 5 -1 12 4 15 17 11 22 -13 22 -102 1 -175
-28 -308 -61 -287 -6 4 -5 76 3 192 2 29 1 50 -3 48 -15 -9 -33 -142 -33 -235
0 -52 -2 -99 -5 -105 -8 -13 -11 -43 -16 -195 -6 -141 -11 -198 -26 -290 -5
-30 -12 -69 -15 -87 -3 -18 -9 -42 -14 -55 -5 -13 -9 -26 -10 -30 0 -5 -1 -9
-2 -10 -4 -13 -10 -50 -13 -82 -4 -31 0 -42 19 -61 24 -22 24 -22 6 -40 -23
-20 -38 -60 -35 -92 1 -13 2 -30 3 -38 0 -8 8 -15 15 -15 18 0 24 -66 16 -182
-5 -84 5 -94 14 -13 4 28 9 61 12 75 3 14 8 79 11 145 5 120 -6 205 -28 205
-10 0 -10 66 0 85 3 6 7 19 8 30 5 27 22 43 21 19 -1 -22 20 -104 27 -104 3 0
4 10 3 23 -1 22 10 184 18 247 2 19 6 64 9 100 9 126 16 197 31 315 3 22 7 60
10 85 4 34 13 53 39 78 19 18 35 43 36 55 0 12 3 40 6 62 3 22 6 158 7 302 1
234 -1 264 -16 279 -16 16 -17 16 -22 -7z"/>
<path d="M7196 8578 c-18 -27 -17 -68 1 -68 25 0 45 71 23 85 -5 3 -16 -5 -24
-17z"/>
<path d="M7975 8373 c-13 -29 -14 -36 -31 -163 -3 -25 -7 -67 -10 -95 -2 -27
-6 -84 -10 -125 -10 -128 -12 -250 -3 -255 10 -7 19 8 25 40 2 14 6 36 8 50 3
14 7 33 10 43 2 9 7 37 10 62 4 25 8 56 11 70 17 96 27 357 14 366 -5 3 -7 10
-4 15 4 5 2 9 -3 9 -6 0 -13 -8 -17 -17z"/>
<path d="M8112 8292 c-32 -84 -47 -162 -31 -162 16 0 51 89 54 137 3 51 -8 64
-23 25z"/>
<path d="M8121 7883 c-19 -37 -40 -234 -22 -217 6 6 14 20 16 32 3 12 7 32 10
45 8 35 16 157 11 157 -3 0 -10 -8 -15 -17z"/>
<path d="M7238 7733 c-6 -21 0 -43 12 -43 9 0 7 47 -2 56 -3 3 -8 -3 -10 -13z"/>
<path d="M7213 7524 c-3 -8 1 -22 9 -30 13 -13 16 -13 27 0 7 9 11 23 7 31 -7
20 -35 19 -43 -1z"/>
<path d="M8416 7422 c-6 -10 -37 -130 -43 -167 -3 -16 -8 -49 -13 -73 -4 -23
-4 -45 0 -47 7 -4 28 44 36 80 1 6 7 33 14 60 21 91 25 177 6 147z"/>
<path d="M7202 7332 c-29 -29 -30 -57 -1 -42 22 12 33 33 27 52 -3 8 -12 4
-26 -10z"/>
<path d="M6702 7252 c-6 -31 -14 -86 -17 -122 -3 -36 -8 -77 -9 -93 -2 -15 1
-30 5 -33 5 -3 10 0 10 5 1 6 2 14 3 19 3 10 19 121 22 152 1 14 3 25 4 25 5
0 4 97 -1 101 -4 2 -11 -22 -17 -54z"/>
<path d="M8236 7269 c-34 -57 -61 -162 -65 -246 -3 -90 10 -133 35 -112 11 9
13 30 10 87 -2 59 1 82 14 106 25 44 47 180 31 191 -4 2 -15 -10 -25 -26z"/>
<path d="M7672 7273 c-12 -24 -10 -127 3 -133 16 -8 41 58 37 95 -5 43 -27 64
-40 38z"/>
<path d="M6890 7186 c0 -14 5 -28 10 -31 6 -4 10 7 10 24 0 17 -4 31 -10 31
-5 0 -10 -11 -10 -24z"/>
<path d="M7184 7184 c6 -31 16 -45 16 -21 0 8 3 22 6 31 4 11 1 16 -10 16 -12
0 -15 -7 -12 -26z"/>
<path d="M6601 7144 c1 -43 4 -53 11 -40 5 9 7 33 5 52 -8 57 -16 51 -16 -12z"/>
<path d="M6875 7091 c-9 -16 -13 -271 -4 -277 3 -1 6 2 6 9 0 7 4 41 8 77 11
103 12 142 5 174 -4 23 -8 27 -15 17z"/>
<path d="M7641 7024 c-1 -26 2 -43 7 -40 10 6 11 70 1 80 -3 3 -6 -15 -8 -40z"/>
<path d="M7736 6982 c-16 -51 -22 -116 -32 -337 -6 -141 -2 -190 9 -129 6 31
19 57 43 90 16 22 24 51 28 95 7 72 16 132 22 138 2 2 -5 19 -17 37 -11 18
-21 46 -24 63 -2 16 -8 38 -13 47 -9 16 -10 15 -16 -4z"/>
<path d="M6573 6945 c-1 -25 1 -45 5 -45 5 0 9 20 11 45 1 25 -2 45 -6 45 -5
0 -9 -20 -10 -45z"/>
<path d="M6277 4478 c-2 -7 -2 -21 1 -31 4 -15 7 -16 13 -5 12 17 11 48 0 48
-5 0 -11 -6 -14 -12z"/>
</g>
</svg>
